<svg id="wave" style="transform:rotate(0deg); transition: 0.3s" viewBox="0 0 1440 240" version="1.1" xmlns="http://www.w3.org/2000/svg"><defs><linearGradient id="sw-gradient-0" x1="0" x2="0" y1="1" y2="0"><stop stop-color="rgba(243, 106, 62, 1)" offset="0%"></stop><stop stop-color="rgba(255, 179, 11, 1)" offset="100%"></stop></linearGradient></defs><path style="transform:translate(0, 0px); opacity:1" fill="url(#sw-gradient-0)" d="M0,72L26.7,72C53.3,72,107,72,160,76C213.3,80,267,88,320,92C373.3,96,427,96,480,92C533.3,88,587,80,640,64C693.3,48,747,24,800,44C853.3,64,907,128,960,152C1013.3,176,1067,160,1120,156C1173.3,152,1227,160,1280,156C1333.3,152,1387,136,1440,112C1493.3,88,1547,56,1600,40C1653.3,24,1707,24,1760,32C1813.3,40,1867,56,1920,56C1973.3,56,2027,40,2080,52C2133.3,64,2187,104,2240,136C2293.3,168,2347,192,2400,172C2453.3,152,2507,88,2560,52C2613.3,16,2667,8,2720,4C2773.3,0,2827,0,2880,36C2933.3,72,2987,144,3040,176C3093.3,208,3147,200,3200,188C3253.3,176,3307,160,3360,160C3413.3,160,3467,176,3520,156C3573.3,136,3627,80,3680,64C3733.3,48,3787,72,3813,84L3840,96L3840,240L3813.3,240C3786.7,240,3733,240,3680,240C3626.7,240,3573,240,3520,240C3466.7,240,3413,240,3360,240C3306.7,240,3253,240,3200,240C3146.7,240,3093,240,3040,240C2986.7,240,2933,240,2880,240C2826.7,240,2773,240,2720,240C2666.7,240,2613,240,2560,240C2506.7,240,2453,240,2400,240C2346.7,240,2293,240,2240,240C2186.7,240,2133,240,2080,240C2026.7,240,1973,240,1920,240C1866.7,240,1813,240,1760,240C1706.7,240,1653,240,1600,240C1546.7,240,1493,240,1440,240C1386.7,240,1333,240,1280,240C1226.7,240,1173,240,1120,240C1066.7,240,1013,240,960,240C906.7,240,853,240,800,240C746.7,240,693,240,640,240C586.7,240,533,240,480,240C426.7,240,373,240,320,240C266.7,240,213,240,160,240C106.7,240,53,240,27,240L0,240Z"></path></svg>