<?xml version="1.0" standalone="no"?><svg xmlns:xlink="http://www.w3.org/1999/xlink" xmlns="http://www.w3.org/2000/svg" viewBox="0 0 1000 583.3399549728513" preserveAspectRatio="xMaxYMax slice"><g transform="scale(1.0594623228711428)"><rect x="0" y="0" width="943.8857142857144" height="550.6" fill="#1f1f1f"/><rect x="31.462857142857146" y="31.462857142857146" width="15.731428571428566" height="15.731428571428566" fill="#1f1f1f"/><polygon points="31.46,31.46 39.33,31.46 31.46,39.33" fill="#3e4499"/><polygon points="39.33,31.46 47.199999999999996,31.46 47.199999999999996,39.33" fill="#4148a5"/><polygon points="39.33,39.33 39.33,47.199999999999996 31.46,47.199999999999996" fill="#474fbd"/><polygon points="39.33,39.33 47.199999999999996,47.199999999999996 39.33,47.199999999999996" fill="#27293f"/><rect x="424.74857142857144" y="31.462857142857146" width="15.731428571428566" height="15.731428571428566" fill="#1f1f1f"/><path d="M 424.75 31.46 A 7.87 7.87 0 0 1 432.62 39.33 L 424.75 39.33" fill="#9b7e3a"/><path d="M 432.61 39.33 A 7.87 7.87 0 0 1  440.48 31.46 L 440.48 39.33" fill="#ad8b3d"/><path d="M 424.75 47.199999999999996 A 7.87 7.87 0 0 0 432.62 39.33 L 424.75 39.33" fill="#efbe4c"/><path d="M 432.61 39.33 A 7.87 7.87 0 0 0 440.48 47.199999999999996 L 440.48 39.33" fill="#2f325e"/><rect x="739.3771428571429" y="31.462857142857146" width="15.731428571428566" height="15.731428571428566" fill="#1f1f1f"/><polygon points="739.38,31.46 747.25,31.46 739.38,39.33" fill="#f4c14d"/><polygon points="755.11,31.46 755.11,39.33 747.24,39.33" fill="#3d4497"/><polygon points="739.38,39.33 747.25,39.33 747.25,47.199999999999996" fill="#3a3f88"/><polygon points="747.24,39.33 755.11,47.199999999999996 747.24,47.199999999999996" fill="#866d35"/><rect x="346.0914285714286" y="110.12" width="15.731428571428566" height="15.731428571428566" fill="#1f1f1f"/><path d="M 346.09 117.99000000000001 A 7.87 7.87 0 0 1 353.96 110.12 L 353.96 112.0875 A 5.9025 5.9025 0 0 0 348.05749999999995 117.99000000000001" fill="#515be5"/><path d="M 353.96 110.12 A 7.87 7.87 0 0 1 361.83 117.99000000000001 L 359.86249999999995 117.99000000000001 A 5.9025 5.9025 0 0 0 353.96 112.0875" fill="#66552e"/><path d="M 346.09 117.99 A 7.87 7.87 0 0 0 353.96 125.86 L 353.96 123.8925 A 5.9025 5.9025 0 0 1 348.05749999999995 117.99" fill="#272521"/><path d="M 353.96 125.86 A 7.87 7.87 0 0 0 361.83 117.99 L 359.86249999999995 117.99 A 5.9025 5.9025 0 0 1 353.96 123.8925" fill="#cca344"/><rect x="503.40571428571434" y="110.12" width="15.731428571428566" height="15.731428571428566" fill="#1f1f1f"/><path d="M 503.41 117.99000000000001 A 7.87 7.87 0 0 0 511.28000000000003 110.12 L 503.41 110.12" fill="#d4aa46"/><path d="M 511.27 110.12 A 7.87 7.87 0 0 0 519.14 117.99000000000001 L 519.14 110.12" fill="#363b7b"/><path d="M 503.41 117.99 A 7.87 7.87 0 0 1 511.28000000000003 125.86 L 503.41 125.86" fill="#4d56d5"/><path d="M 511.27 125.86 A 7.87 7.87 0 0 1  519.14 117.99 L 519.14 125.86" fill="#3c4291"/><rect x="739.3771428571429" y="110.12" width="15.731428571428566" height="15.731428571428566" fill="#1f1f1f"/><path d="M 739.38 117.99000000000001 A 7.87 7.87 0 0 1  747.25 110.12 L 747.25 117.99000000000001" fill="#363b7c"/><path d="M 747.24 110.12 A 7.87 7.87 0 0 1 755.11 117.99000000000001 L 747.24 117.99000000000001" fill="#3d4394"/><path d="M 739.38 117.99 A 7.87 7.87 0 0 0 747.25 125.86 L 747.25 117.99" fill="#4a52c7"/><path d="M 747.24 125.86 A 7.87 7.87 0 0 0 755.11 117.99 L 747.24 117.99" fill="#f8c54d"/><rect x="31.462857142857146" y="188.77714285714285" width="15.731428571428566" height="15.731428571428566" fill="#1f1f1f"/><path d="M 31.46 196.65 A 7.87 7.87 0 0 0 39.33 188.78 L 31.46 188.78" fill="#353024"/><path d="M 39.33 188.78 A 7.87 7.87 0 0 0 47.199999999999996 196.65 L 47.199999999999996 188.78" fill="#2f3360"/><path d="M 31.46 196.64 A 7.87 7.87 0 0 1 39.33 204.51 L 31.46 204.51" fill="#d5aa46"/><path d="M 39.33 204.51 A 7.87 7.87 0 0 1  47.199999999999996 196.64 L 47.199999999999996 204.51" fill="#af8d3e"/><rect x="660.72" y="188.77714285714285" width="15.731428571428566" height="15.731428571428566" fill="#1f1f1f"/><path d="M 660.72 196.65 A 7.87 7.87 0 0 0 668.59 188.78 L 660.72 188.78" fill="#363124"/><path d="M 668.59 188.78 A 7.87 7.87 0 0 0 676.46 196.65 L 676.46 188.78" fill="#454cb5"/><path d="M 660.72 196.64 A 7.87 7.87 0 0 1 668.59 204.51 L 660.72 204.51" fill="#454cb3"/><path d="M 668.59 204.51 A 7.87 7.87 0 0 1  676.46 196.64 L 676.46 204.51" fill="#232430"/><rect x="896.6914285714286" y="188.77714285714285" width="15.731428571428566" height="15.731428571428566" fill="#1f1f1f"/><polygon points="896.69,188.78 904.5600000000001,188.78 896.69,196.65" fill="#957938"/><polygon points="904.56,188.78 912.43,188.78 912.43,196.65" fill="#2a2821"/><polygon points="904.5600000000001,196.64 904.5600000000001,204.51 896.69,204.51" fill="#4a3f28"/><polygon points="904.56,196.64 912.43,204.51 904.56,204.51" fill="#403826"/><rect x="582.0628571428572" y="267.43428571428575" width="15.731428571428566" height="15.731428571428566" fill="#1f1f1f"/><path d="M 582.06 275.3 A 7.87 7.87 0 0 1  589.93 267.43 L 589.93 275.3" fill="#4850bf"/><path d="M 589.93 267.43 A 7.87 7.87 0 0 1 597.8 275.3 L 589.93 275.3" fill="#6d5b30"/><path d="M 582.06 275.3 A 7.87 7.87 0 0 0 589.93 283.17 L 589.93 275.3" fill="#e6b74a"/><path d="M 589.93 283.17 A 7.87 7.87 0 0 0 597.8 275.3 L 589.93 275.3" fill="#303362"/><rect x="818.0342857142857" y="267.43428571428575" width="15.731428571428566" height="15.731428571428566" fill="#1f1f1f"/><path d="M 818.03 275.3 A 7.87 7.87 0 0 1 825.9 267.43 L 825.9 269.3975 A 5.9025 5.9025 0 0 0 819.9975 275.3" fill="#464eba"/><path d="M 825.9 267.43 A 7.87 7.87 0 0 1 833.77 275.3 L 831.8025 275.3 A 5.9025 5.9025 0 0 0 825.9 269.3975" fill="#473e28"/><path d="M 818.03 275.3 A 7.87 7.87 0 0 0 825.9 283.17 L 825.9 281.2025 A 5.9025 5.9025 0 0 1 819.9975 275.3" fill="#56492b"/><path d="M 825.9 283.17 A 7.87 7.87 0 0 0 833.77 275.3 L 831.8025 275.3 A 5.9025 5.9025 0 0 1 825.9 281.2025" fill="#332f23"/><rect x="896.6914285714286" y="267.43428571428575" width="15.731428571428566" height="15.731428571428566" fill="#1f1f1f"/><path d="M 896.69 275.3 A 7.87 7.87 0 0 1  904.5600000000001 267.43 L 904.5600000000001 275.3" fill="#252738"/><path d="M 904.56 267.43 A 7.87 7.87 0 0 1 912.43 275.3 L 904.56 275.3" fill="#525ce8"/><path d="M 896.69 275.3 A 7.87 7.87 0 0 0 904.5600000000001 283.17 L 904.5600000000001 275.3" fill="#9d7f3a"/><path d="M 904.56 283.17 A 7.87 7.87 0 0 0 912.43 275.3 L 904.56 275.3" fill="#3d4394"/><rect x="31.462857142857146" y="346.0914285714286" width="15.731428571428566" height="15.731428571428566" fill="#1f1f1f"/><polygon points="31.46,346.09 39.33,346.09 31.46,353.96" fill="#3c4291"/><polygon points="47.199999999999996,346.09 47.199999999999996,353.96 39.33,353.96" fill="#464eb9"/><polygon points="31.46,353.96 39.33,353.96 39.33,361.83" fill="#4d56d4"/><polygon points="39.33,353.96 47.199999999999996,361.83 39.33,361.83" fill="#cea545"/><rect x="110.12" y="346.0914285714286" width="15.731428571428566" height="15.731428571428566" fill="#1f1f1f"/><polygon points="110.12,346.09 117.99000000000001,346.09 110.12,353.96" fill="#252739"/><polygon points="117.99,346.09 125.86,346.09 125.86,353.96" fill="#353024"/><polygon points="117.99000000000001,353.96 117.99000000000001,361.83 110.12,361.83" fill="#4f59dc"/><polygon points="117.99,353.96 125.86,361.83 117.99,361.83" fill="#cca344"/><rect x="346.0914285714286" y="346.0914285714286" width="15.731428571428566" height="15.731428571428566" fill="#1f1f1f"/><polygon points="346.09,346.09 353.96,346.09 346.09,353.96" fill="#e1b349"/><polygon points="361.83,346.09 361.83,353.96 353.96,353.96" fill="#322e23"/><polygon points="346.09,353.96 353.96,353.96 353.96,361.83" fill="#927738"/><polygon points="353.96,353.96 361.83,361.83 353.96,361.83" fill="#c79f43"/><rect x="424.74857142857144" y="346.0914285714286" width="15.731428571428566" height="15.731428571428566" fill="#1f1f1f"/><path d="M 424.75 346.09 A 7.87 7.87 0 0 0 432.62 353.96 L 432.62 346.09" fill="#383d83"/><path d="M 432.61 353.96 A 7.87 7.87 0 0 0 440.48 346.09 L 432.61 346.09" fill="#e1b348"/><path d="M 424.75 361.83 A 7.87 7.87 0 0 1  432.62 353.96 L 432.62 361.83" fill="#5d4f2c"/><path d="M 432.61 353.96 A 7.87 7.87 0 0 1 440.48 361.83 L 432.61 361.83" fill="#d9ad47"/><rect x="582.0628571428572" y="346.0914285714286" width="15.731428571428566" height="15.731428571428566" fill="#1f1f1f"/><polygon points="582.06,346.09 589.93,346.09 582.06,353.96" fill="#756031"/><polygon points="589.93,346.09 597.8,346.09 597.8,353.96" fill="#4e57d7"/><polygon points="589.93,353.96 589.93,361.83 582.06,361.83" fill="#4952c6"/><polygon points="589.93,353.96 597.8,361.83 589.93,361.83" fill="#4f58db"/><rect x="818.0342857142857" y="346.0914285714286" width="15.731428571428566" height="15.731428571428566" fill="#1f1f1f"/><polygon points="818.03,346.09 825.9,346.09 818.03,353.96" fill="#756131"/><polygon points="825.9,346.09 833.77,346.09 833.77,353.96" fill="#373224"/><polygon points="818.03,353.96 825.9,361.83 818.03,361.83" fill="#4e57d7"/><polygon points="833.77,353.96 833.77,361.83 825.9,361.83" fill="#22232b"/><rect x="31.462857142857146" y="424.74857142857144" width="15.731428571428566" height="15.731428571428566" fill="#1f1f1f"/><path d="M 31.46 424.75 A 7.87 7.87 0 0 0 39.33 432.62 L 39.33 424.75" fill="#4a53ca"/><path d="M 39.33 432.62 A 7.87 7.87 0 0 0 47.199999999999996 424.75 L 39.33 424.75" fill="#1f1f20"/><path d="M 31.46 440.48 A 7.87 7.87 0 0 1  39.33 432.61 L 39.33 440.48" fill="#545ff1"/><path d="M 39.33 432.61 A 7.87 7.87 0 0 1 47.199999999999996 440.48 L 39.33 440.48" fill="#313466"/><rect x="31.462857142857146" y="503.40571428571434" width="15.731428571428566" height="15.731428571428566" fill="#1f1f1f"/><path d="M 31.46 503.41 A 7.87 7.87 0 0 1 39.33 511.28000000000003 L 31.46 511.28000000000003" fill="#322d23"/><path d="M 39.33 511.28000000000003 A 7.87 7.87 0 0 1  47.199999999999996 503.41 L 47.199999999999996 511.28000000000003" fill="#b4903f"/><path d="M 31.46 519.14 A 7.87 7.87 0 0 0 39.33 511.27 L 31.46 511.27" fill="#33376e"/><path d="M 39.33 511.27 A 7.87 7.87 0 0 0 47.199999999999996 519.14 L 47.199999999999996 511.27" fill="#e2b449"/><rect x="267.43428571428575" y="503.40571428571434" width="15.731428571428566" height="15.731428571428566" fill="#1f1f1f"/><path d="M 267.43 511.28000000000003 A 7.87 7.87 0 0 1  275.3 503.41 L 275.3 511.28000000000003" fill="#52462a"/><path d="M 275.3 503.41 A 7.87 7.87 0 0 1 283.17 511.28000000000003 L 275.3 511.28000000000003" fill="#4c56d2"/><path d="M 267.43 511.27 A 7.87 7.87 0 0 0 275.3 519.14 L 275.3 511.27" fill="#2a2d4c"/><path d="M 275.3 519.14 A 7.87 7.87 0 0 0 283.17 511.27 L 275.3 511.27" fill="#816a34"/><rect x="346.0914285714286" y="503.40571428571434" width="15.731428571428566" height="15.731428571428566" fill="#1f1f1f"/><polygon points="346.09,503.41 353.96,503.41 346.09,511.28000000000003" fill="#23242f"/><polygon points="353.96,503.41 361.83,503.41 361.83,511.28000000000003" fill="#5a4c2c"/><polygon points="353.96,511.27 353.96,519.14 346.09,519.14" fill="#c9a144"/><polygon points="353.96,511.27 361.83,519.14 353.96,519.14" fill="#525ce9"/><rect x="582.0628571428572" y="503.40571428571434" width="15.731428571428566" height="15.731428571428566" fill="#1f1f1f"/><path d="M 582.06 503.41 A 7.87 7.87 0 0 1 589.93 511.28000000000003 L 582.06 511.28000000000003" fill="#493f28"/><path d="M 589.93 511.28000000000003 A 7.87 7.87 0 0 1  597.8 503.41 L 597.8 511.28000000000003" fill="#766132"/><path d="M 582.06 519.14 A 7.87 7.87 0 0 0 589.93 511.27 L 582.06 511.27" fill="#6b592f"/><path d="M 589.93 511.27 A 7.87 7.87 0 0 0 597.8 519.14 L 597.8 511.27" fill="#515be5"/><rect x="660.72" y="503.40571428571434" width="15.731428571428566" height="15.731428571428566" fill="#1f1f1f"/><path d="M 660.72 503.41 A 7.87 7.87 0 0 1 668.59 511.28000000000003 L 660.72 511.28000000000003" fill="#454db6"/><path d="M 668.59 511.28000000000003 A 7.87 7.87 0 0 1  676.46 503.41 L 676.46 511.28000000000003" fill="#303463"/><path d="M 660.72 519.14 A 7.87 7.87 0 0 0 668.59 511.27 L 660.72 511.27" fill="#2b2d4e"/><path d="M 668.59 511.27 A 7.87 7.87 0 0 0 676.46 519.14 L 676.46 511.27" fill="#232430"/></g></svg>